<svg width="30" height="34" viewBox="0 0 30 34" fill="none" xmlns="http://www.w3.org/2000/svg">
<g clip-path="url(#clip0_1_2)">
<path fill-rule="evenodd" clip-rule="evenodd" d="M29.9459 19.0195V7.94924C29.9459 5.55316 27.9868 3.58898 25.5856 3.58898H23.4827H22.7936V1.56311C22.7936 0.704428 22.0892 0 21.2306 0C20.3718 0 19.6674 0.704428 19.6674 1.56311V3.58898V5.3732C19.6674 6.23187 20.3718 6.9363 21.2306 6.9363C22.0892 6.9363 22.7936 6.23187 22.7936 5.3732V4.60191H23.4827V5.3732C23.4827 6.61237 22.4696 7.62531 21.2306 7.62531C19.9914 7.62531 18.9785 6.61237 18.9785 5.3732V3.59412H17.2251H16.5361V1.56825C16.5361 0.709569 15.8316 0.00514212 14.9729 0.00514212C14.1143 0.00514212 13.4098 0.709569 13.4098 1.56825V3.59412V5.3732C13.4098 6.23187 14.1143 6.9363 14.9729 6.9363C15.8316 6.9363 16.5361 6.23187 16.5361 5.3732V4.60191H17.2251V5.3732C17.2251 6.61237 16.2121 7.62531 14.9729 7.62531C13.7338 7.62531 12.7208 6.61237 12.7208 5.3732V3.59412H10.9675H10.2785V1.56825C10.2785 0.709569 9.57405 0.00514212 8.71536 0.00514212C7.85668 0.00514212 7.15225 0.709569 7.15225 1.56825V3.59412V5.3732C7.15225 6.23187 7.85668 6.9363 8.71536 6.9363C9.57405 6.9363 10.2785 6.23187 10.2785 5.3732V4.60191H10.9675V5.3732C10.9675 6.61237 9.95453 7.62531 8.71536 7.62531C7.4762 7.62531 6.46326 6.61237 6.46326 5.3732V3.59412H4.36026C1.96417 3.59412 0 5.55316 0 7.95438V22.2023V29.19C0 31.5861 1.95904 33.5503 4.36026 33.5503H9.94425H11.929H19.2201H21.7241H25.601C27.9971 33.5503 29.9613 31.5912 29.9613 29.19V19.0195H29.9459ZM21.6234 11.694C25.2882 15.3574 25.2882 21.3517 21.6234 25.015L14.9625 31.6733L8.30166 25.015C4.63679 21.3517 4.63679 15.3574 8.30166 11.694C11.9665 8.03061 17.9631 8.03061 21.6234 11.694Z" fill="#745DFF"/>
<path d="M14.9682 24.2075C18.3589 24.2075 21.1076 21.4589 21.1076 18.0684C21.1076 14.6776 18.3589 11.929 14.9682 11.929C11.5776 11.929 8.82893 14.6776 8.82893 18.0684C8.82893 21.4589 11.5776 24.2075 14.9682 24.2075Z" fill="#745DFF"/>
</g>
<defs>
<clipPath id="clip0_1_2">
<rect width="30" height="33.5503" fill="white"/>
</clipPath>
</defs>
</svg>
