<svg width="169" height="189" viewBox="0 0 169 189" fill="none" xmlns="http://www.w3.org/2000/svg">
<path fill-rule="evenodd" clip-rule="evenodd" d="M168.695 107.143V44.7807C168.695 31.2828 157.659 20.2179 144.132 20.2179H132.286H128.404V8.80552C128.404 3.96828 124.436 0 119.599 0C114.761 0 110.793 3.96828 110.793 8.80552V20.2179V30.269C110.793 35.1062 114.761 39.0745 119.599 39.0745C124.436 39.0745 128.404 35.1062 128.404 30.269V25.9241H132.286V30.269C132.286 37.2497 126.579 42.9559 119.599 42.9559C112.618 42.9559 106.912 37.2497 106.912 30.269V20.2469H97.0345H93.1531V8.83448C93.1531 3.99724 89.1848 0.0289673 84.3476 0.0289673C79.5104 0.0289673 75.5421 3.99724 75.5421 8.83448V20.2469V30.269C75.5421 35.1062 79.5104 39.0745 84.3476 39.0745C89.1848 39.0745 93.1531 35.1062 93.1531 30.269V25.9241H97.0345V30.269C97.0345 37.2497 91.3283 42.9559 84.3476 42.9559C77.3669 42.9559 71.6607 37.2497 71.6607 30.269V20.2469H61.7835H57.9021V8.83448C57.9021 3.99724 53.9338 0.0289673 49.0965 0.0289673C44.2593 0.0289673 40.291 3.99724 40.291 8.83448V20.2469V30.269C40.291 35.1062 44.2593 39.0745 49.0965 39.0745C53.9338 39.0745 57.9021 35.1062 57.9021 30.269V25.9241H61.7835V30.269C61.7835 37.2497 56.0772 42.9559 49.0965 42.9559C42.1159 42.9559 36.4097 37.2497 36.4097 30.269V20.2469H24.5628C11.0648 20.2469 0 31.2828 0 44.8097V125.073V164.437C0 177.935 11.0359 189 24.5628 189H56.0193H67.2H108.273H122.379H144.219C157.717 189 168.782 177.964 168.782 164.437V107.143H168.695ZM121.812 65.8762C142.457 86.5134 142.457 120.281 121.812 140.918L84.2888 178.426L46.766 140.918C26.1206 120.281 26.1206 86.5134 46.766 65.8762C67.4114 45.2391 101.192 45.2391 121.812 65.8762Z" fill="#745DFF"/>
<path d="M84.3211 136.369C103.422 136.369 118.906 120.885 118.906 101.785C118.906 82.6839 103.422 67.1997 84.3211 67.1997C65.2205 67.1997 49.7363 82.6839 49.7363 101.785C49.7363 120.885 65.2205 136.369 84.3211 136.369Z" fill="#745DFF"/>
</svg>
