<svg width="18" height="20" viewBox="0 0 18 20" fill="none" xmlns="http://www.w3.org/2000/svg">
<path fill-rule="evenodd" clip-rule="evenodd" d="M17.8513 11.3379V4.7387C17.8513 3.31034 16.6835 2.13946 15.2521 2.13946H13.9985H13.5877V0.931801C13.5877 0.419924 13.1678 0 12.6559 0C12.1441 0 11.7241 0.419924 11.7241 0.931801V2.13946V3.20307C11.7241 3.71494 12.1441 4.13487 12.6559 4.13487C13.1678 4.13487 13.5877 3.71494 13.5877 3.20307V2.74329H13.9985V3.20307C13.9985 3.94176 13.3946 4.54559 12.6559 4.54559C11.9172 4.54559 11.3134 3.94176 11.3134 3.20307V2.14253H10.2682H9.85747V0.934866C9.85747 0.422988 9.43755 0.00306532 8.92567 0.00306532C8.41379 0.00306532 7.99387 0.422988 7.99387 0.934866V2.14253V3.20307C7.99387 3.71494 8.41379 4.13487 8.92567 4.13487C9.43755 4.13487 9.85747 3.71494 9.85747 3.20307V2.74329H10.2682V3.20307C10.2682 3.94176 9.66437 4.54559 8.92567 4.54559C8.18697 4.54559 7.58314 3.94176 7.58314 3.20307V2.14253H6.53793H6.1272V0.934866C6.1272 0.422988 5.70728 0.00306532 5.1954 0.00306532C4.68352 0.00306532 4.2636 0.422988 4.2636 0.934866V2.14253V3.20307C4.2636 3.71494 4.68352 4.13487 5.1954 4.13487C5.70728 4.13487 6.1272 3.71494 6.1272 3.20307V2.74329H6.53793V3.20307C6.53793 3.94176 5.9341 4.54559 5.1954 4.54559C4.4567 4.54559 3.85288 3.94176 3.85288 3.20307V2.14253H2.59923C1.17088 2.14253 0 3.31035 0 4.74176V13.2352V17.4008C0 18.8291 1.16782 20 2.59923 20H5.92797H7.11111H11.4575H12.9502H15.2613C16.6897 20 17.8605 18.8322 17.8605 17.4008V11.3379H17.8513ZM12.89 6.97104C15.0747 9.15486 15.0747 12.7281 12.89 14.912L8.91938 18.8811L4.94871 14.912C2.76401 12.7281 2.76401 9.15486 4.94871 6.97104C7.13341 4.78721 10.7081 4.78721 12.89 6.97104Z" fill="white"/>
<path d="M8.92344 14.4306C10.9447 14.4306 12.5832 12.7921 12.5832 10.7709C12.5832 8.74962 10.9447 7.11108 8.92344 7.11108C6.9022 7.11108 5.26367 8.74962 5.26367 10.7709C5.26367 12.7921 6.9022 14.4306 8.92344 14.4306Z" fill="white"/>
</svg>
